<mxfile host="app.diagrams.net" agent="Mozilla/5.0 (Windows NT 10.0; Win64; x64) AppleWebKit/537.36 (KHTML, like Gecko) Chrome/130.0.0.0 Safari/537.36" version="24.8.4">
  <diagram name="Page-1" id="u5yoPsmqBJ-nEFNAoy6l">
    <mxGraphModel dx="794" dy="526" grid="1" gridSize="10" guides="1" tooltips="1" connect="1" arrows="1" fold="1" page="1" pageScale="1" pageWidth="850" pageHeight="1100" math="0" shadow="0">
      <root>
        <mxCell id="0" />
        <mxCell id="1" parent="0" />
        <mxCell id="lDsNkmQqCHkQVeXZDjFO-2" value="vpc" style="whiteSpace=wrap;html=1;aspect=fixed;" vertex="1" parent="1">
          <mxGeometry x="20" y="205" width="590" height="590" as="geometry" />
        </mxCell>
        <mxCell id="lDsNkmQqCHkQVeXZDjFO-19" style="edgeStyle=orthogonalEdgeStyle;rounded=0;orthogonalLoop=1;jettySize=auto;html=1;entryX=0.5;entryY=1;entryDx=0;entryDy=0;" edge="1" parent="1" source="lDsNkmQqCHkQVeXZDjFO-3" target="lDsNkmQqCHkQVeXZDjFO-18">
          <mxGeometry relative="1" as="geometry" />
        </mxCell>
        <mxCell id="lDsNkmQqCHkQVeXZDjFO-3" value="public subnet" style="ellipse;whiteSpace=wrap;html=1;" vertex="1" parent="1">
          <mxGeometry x="40" y="360" width="230" height="140" as="geometry" />
        </mxCell>
        <mxCell id="lDsNkmQqCHkQVeXZDjFO-5" value="private subnet&amp;nbsp;" style="ellipse;whiteSpace=wrap;html=1;" vertex="1" parent="1">
          <mxGeometry x="324" y="350" width="206" height="100" as="geometry" />
        </mxCell>
        <mxCell id="lDsNkmQqCHkQVeXZDjFO-7" value="public subnet" style="ellipse;whiteSpace=wrap;html=1;" vertex="1" parent="1">
          <mxGeometry x="20" y="550" width="240" height="100" as="geometry" />
        </mxCell>
        <mxCell id="lDsNkmQqCHkQVeXZDjFO-8" value="private subnet" style="ellipse;whiteSpace=wrap;html=1;" vertex="1" parent="1">
          <mxGeometry x="360" y="570" width="218" height="90" as="geometry" />
        </mxCell>
        <mxCell id="lDsNkmQqCHkQVeXZDjFO-12" style="edgeStyle=orthogonalEdgeStyle;rounded=0;orthogonalLoop=1;jettySize=auto;html=1;" edge="1" parent="1" source="lDsNkmQqCHkQVeXZDjFO-9" target="lDsNkmQqCHkQVeXZDjFO-10">
          <mxGeometry relative="1" as="geometry" />
        </mxCell>
        <mxCell id="lDsNkmQqCHkQVeXZDjFO-9" value="users" style="rounded=1;whiteSpace=wrap;html=1;" vertex="1" parent="1">
          <mxGeometry x="480" y="80" width="65" height="60" as="geometry" />
        </mxCell>
        <mxCell id="lDsNkmQqCHkQVeXZDjFO-14" style="edgeStyle=orthogonalEdgeStyle;rounded=0;orthogonalLoop=1;jettySize=auto;html=1;entryX=0.75;entryY=0;entryDx=0;entryDy=0;" edge="1" parent="1" source="lDsNkmQqCHkQVeXZDjFO-10" target="lDsNkmQqCHkQVeXZDjFO-11">
          <mxGeometry relative="1" as="geometry" />
        </mxCell>
        <mxCell id="lDsNkmQqCHkQVeXZDjFO-10" value="alb-" style="rounded=1;whiteSpace=wrap;html=1;" vertex="1" parent="1">
          <mxGeometry x="290" y="160" width="70" height="50" as="geometry" />
        </mxCell>
        <mxCell id="lDsNkmQqCHkQVeXZDjFO-39" style="edgeStyle=orthogonalEdgeStyle;rounded=0;orthogonalLoop=1;jettySize=auto;html=1;exitX=0;exitY=1;exitDx=0;exitDy=0;entryX=1;entryY=0;entryDx=0;entryDy=0;" edge="1" parent="1" source="lDsNkmQqCHkQVeXZDjFO-11" target="lDsNkmQqCHkQVeXZDjFO-30">
          <mxGeometry relative="1" as="geometry" />
        </mxCell>
        <mxCell id="lDsNkmQqCHkQVeXZDjFO-11" value="service" style="rounded=1;whiteSpace=wrap;html=1;" vertex="1" parent="1">
          <mxGeometry x="440" y="190" width="80" height="60" as="geometry" />
        </mxCell>
        <mxCell id="lDsNkmQqCHkQVeXZDjFO-15" style="edgeStyle=orthogonalEdgeStyle;rounded=0;orthogonalLoop=1;jettySize=auto;html=1;exitX=0;exitY=0;exitDx=0;exitDy=0;" edge="1" parent="1" source="lDsNkmQqCHkQVeXZDjFO-2" target="lDsNkmQqCHkQVeXZDjFO-2">
          <mxGeometry relative="1" as="geometry" />
        </mxCell>
        <mxCell id="lDsNkmQqCHkQVeXZDjFO-16" value="internet" style="ellipse;whiteSpace=wrap;html=1;" vertex="1" parent="1">
          <mxGeometry x="40" y="20" width="110" height="80" as="geometry" />
        </mxCell>
        <mxCell id="lDsNkmQqCHkQVeXZDjFO-17" value="IG" style="ellipse;whiteSpace=wrap;html=1;" vertex="1" parent="1">
          <mxGeometry x="170" y="70" width="90" height="60" as="geometry" />
        </mxCell>
        <mxCell id="lDsNkmQqCHkQVeXZDjFO-21" style="edgeStyle=orthogonalEdgeStyle;rounded=0;orthogonalLoop=1;jettySize=auto;html=1;exitX=0.5;exitY=0;exitDx=0;exitDy=0;entryX=0;entryY=1;entryDx=0;entryDy=0;" edge="1" parent="1" source="lDsNkmQqCHkQVeXZDjFO-18" target="lDsNkmQqCHkQVeXZDjFO-17">
          <mxGeometry relative="1" as="geometry" />
        </mxCell>
        <mxCell id="lDsNkmQqCHkQVeXZDjFO-18" value="route table" style="ellipse;whiteSpace=wrap;html=1;" vertex="1" parent="1">
          <mxGeometry x="60" y="240" width="120" height="80" as="geometry" />
        </mxCell>
        <mxCell id="lDsNkmQqCHkQVeXZDjFO-20" style="edgeStyle=orthogonalEdgeStyle;rounded=0;orthogonalLoop=1;jettySize=auto;html=1;exitX=0.5;exitY=0;exitDx=0;exitDy=0;entryX=0.8;entryY=0.842;entryDx=0;entryDy=0;entryPerimeter=0;" edge="1" parent="1" source="lDsNkmQqCHkQVeXZDjFO-7" target="lDsNkmQqCHkQVeXZDjFO-18">
          <mxGeometry relative="1" as="geometry" />
        </mxCell>
        <mxCell id="lDsNkmQqCHkQVeXZDjFO-22" style="edgeStyle=orthogonalEdgeStyle;rounded=0;orthogonalLoop=1;jettySize=auto;html=1;entryX=0.333;entryY=0.022;entryDx=0;entryDy=0;entryPerimeter=0;" edge="1" parent="1" source="lDsNkmQqCHkQVeXZDjFO-16" target="lDsNkmQqCHkQVeXZDjFO-17">
          <mxGeometry relative="1" as="geometry" />
        </mxCell>
        <mxCell id="lDsNkmQqCHkQVeXZDjFO-25" style="edgeStyle=orthogonalEdgeStyle;rounded=0;orthogonalLoop=1;jettySize=auto;html=1;exitX=0.5;exitY=1;exitDx=0;exitDy=0;entryX=0;entryY=0;entryDx=0;entryDy=0;" edge="1" parent="1" source="lDsNkmQqCHkQVeXZDjFO-23" target="lDsNkmQqCHkQVeXZDjFO-7">
          <mxGeometry relative="1" as="geometry" />
        </mxCell>
        <mxCell id="lDsNkmQqCHkQVeXZDjFO-23" value="security groups" style="ellipse;whiteSpace=wrap;html=1;" vertex="1" parent="1">
          <mxGeometry x="20" y="500" width="80" height="50" as="geometry" />
        </mxCell>
        <mxCell id="lDsNkmQqCHkQVeXZDjFO-24" style="edgeStyle=orthogonalEdgeStyle;rounded=0;orthogonalLoop=1;jettySize=auto;html=1;exitX=0.5;exitY=0;exitDx=0;exitDy=0;entryX=0.197;entryY=0.919;entryDx=0;entryDy=0;entryPerimeter=0;" edge="1" parent="1" source="lDsNkmQqCHkQVeXZDjFO-23" target="lDsNkmQqCHkQVeXZDjFO-3">
          <mxGeometry relative="1" as="geometry" />
        </mxCell>
        <mxCell id="lDsNkmQqCHkQVeXZDjFO-27" style="edgeStyle=orthogonalEdgeStyle;rounded=0;orthogonalLoop=1;jettySize=auto;html=1;" edge="1" parent="1" source="lDsNkmQqCHkQVeXZDjFO-26" target="lDsNkmQqCHkQVeXZDjFO-8">
          <mxGeometry relative="1" as="geometry" />
        </mxCell>
        <mxCell id="lDsNkmQqCHkQVeXZDjFO-26" value="NACL" style="ellipse;whiteSpace=wrap;html=1;" vertex="1" parent="1">
          <mxGeometry x="520" y="490" width="80" height="40" as="geometry" />
        </mxCell>
        <mxCell id="lDsNkmQqCHkQVeXZDjFO-28" style="edgeStyle=orthogonalEdgeStyle;rounded=0;orthogonalLoop=1;jettySize=auto;html=1;entryX=0.693;entryY=1.007;entryDx=0;entryDy=0;entryPerimeter=0;" edge="1" parent="1" source="lDsNkmQqCHkQVeXZDjFO-26" target="lDsNkmQqCHkQVeXZDjFO-5">
          <mxGeometry relative="1" as="geometry" />
        </mxCell>
        <mxCell id="lDsNkmQqCHkQVeXZDjFO-29" value="worker node1" style="ellipse;whiteSpace=wrap;html=1;" vertex="1" parent="1">
          <mxGeometry x="150" y="440" width="125" height="60" as="geometry" />
        </mxCell>
        <mxCell id="lDsNkmQqCHkQVeXZDjFO-30" value="workernode2&amp;nbsp;" style="ellipse;whiteSpace=wrap;html=1;" vertex="1" parent="1">
          <mxGeometry x="210" y="575" width="80" height="80" as="geometry" />
        </mxCell>
        <mxCell id="lDsNkmQqCHkQVeXZDjFO-31" value="control plane" style="ellipse;whiteSpace=wrap;html=1;" vertex="1" parent="1">
          <mxGeometry x="458" y="370" width="120" height="80" as="geometry" />
        </mxCell>
        <mxCell id="lDsNkmQqCHkQVeXZDjFO-32" value="control plane" style="ellipse;whiteSpace=wrap;html=1;" vertex="1" parent="1">
          <mxGeometry x="500" y="580" width="120" height="80" as="geometry" />
        </mxCell>
        <mxCell id="lDsNkmQqCHkQVeXZDjFO-33" value="route table" style="ellipse;whiteSpace=wrap;html=1;" vertex="1" parent="1">
          <mxGeometry x="270" y="250" width="120" height="80" as="geometry" />
        </mxCell>
        <mxCell id="lDsNkmQqCHkQVeXZDjFO-34" style="edgeStyle=orthogonalEdgeStyle;rounded=0;orthogonalLoop=1;jettySize=auto;html=1;exitX=0;exitY=0;exitDx=0;exitDy=0;entryX=0.65;entryY=0.958;entryDx=0;entryDy=0;entryPerimeter=0;" edge="1" parent="1" source="lDsNkmQqCHkQVeXZDjFO-5" target="lDsNkmQqCHkQVeXZDjFO-33">
          <mxGeometry relative="1" as="geometry" />
        </mxCell>
        <mxCell id="lDsNkmQqCHkQVeXZDjFO-35" style="edgeStyle=orthogonalEdgeStyle;rounded=0;orthogonalLoop=1;jettySize=auto;html=1;exitX=0;exitY=0;exitDx=0;exitDy=0;entryX=0.339;entryY=0.967;entryDx=0;entryDy=0;entryPerimeter=0;" edge="1" parent="1" source="lDsNkmQqCHkQVeXZDjFO-8" target="lDsNkmQqCHkQVeXZDjFO-33">
          <mxGeometry relative="1" as="geometry" />
        </mxCell>
        <mxCell id="lDsNkmQqCHkQVeXZDjFO-36" value="nat gateway&amp;nbsp;" style="ellipse;whiteSpace=wrap;html=1;" vertex="1" parent="1">
          <mxGeometry x="40" y="340" width="120" height="80" as="geometry" />
        </mxCell>
        <mxCell id="lDsNkmQqCHkQVeXZDjFO-37" style="edgeStyle=orthogonalEdgeStyle;rounded=0;orthogonalLoop=1;jettySize=auto;html=1;exitX=0;exitY=0;exitDx=0;exitDy=0;entryX=1;entryY=0.633;entryDx=0;entryDy=0;entryPerimeter=0;" edge="1" parent="1" source="lDsNkmQqCHkQVeXZDjFO-33" target="lDsNkmQqCHkQVeXZDjFO-36">
          <mxGeometry relative="1" as="geometry" />
        </mxCell>
        <mxCell id="lDsNkmQqCHkQVeXZDjFO-38" style="edgeStyle=orthogonalEdgeStyle;rounded=0;orthogonalLoop=1;jettySize=auto;html=1;exitX=0;exitY=0.75;exitDx=0;exitDy=0;entryX=0.957;entryY=0.571;entryDx=0;entryDy=0;entryPerimeter=0;" edge="1" parent="1" source="lDsNkmQqCHkQVeXZDjFO-11" target="lDsNkmQqCHkQVeXZDjFO-3">
          <mxGeometry relative="1" as="geometry" />
        </mxCell>
      </root>
    </mxGraphModel>
  </diagram>
</mxfile>
